HIERARCHY
ROOT Hips
{
  OFFSET 53.8039 96.5556 -200.501
  CHANNELS 6 Xposition Yposition Zposition Zrotation Xrotation Yrotation
  JOINT RightUpLeg
  {
    OFFSET -8.9458 -8.66707 0.101652
    CHANNELS 3 Zrotation Xrotation Yrotation
    JOINT RightLeg
    {
      OFFSET 0 -44.4227 1.3727
      CHANNELS 3 Zrotation Xrotation Yrotation
      JOINT RightFoot
      {
        OFFSET 0.253549 -42.0924 -1.46059
        CHANNELS 3 Zrotation Xrotation Yrotation
        JOINT RightToes
        {
          OFFSET 0.04 -4.41509 8.4991
          CHANNELS 3 Zrotation Xrotation Yrotation
          End Site
          {
            OFFSET -0.08 -0.137448 9.77979
          }
        }
      }
    }
  }
  JOINT Spine
  {
    OFFSET 0 11.8905 0
    CHANNELS 3 Zrotation Xrotation Yrotation
    JOINT Spine1
    {
      OFFSET 0 25.6574 0.127663
      CHANNELS 3 Zrotation Xrotation Yrotation
      JOINT HEad
      {
        OFFSET 0 8.73416 0.011341
        CHANNELS 3 Zrotation Xrotation Yrotation
        End Site
        {
          OFFSET -0.29 12.7742 2.51395
        }
      }
      JOINT LeftShoulder1
      {
        OFFSET 8.99 -0.362252 -0.22
        CHANNELS 3 Zrotation Xrotation Yrotation
        JOINT LeftArm
        {
          OFFSET 10.2827 -0.00338 0.322123
          CHANNELS 3 Zrotation Xrotation Yrotation
          JOINT LeftForeArm
          {
            OFFSET 32.7669 0.099144 -1.42434
            CHANNELS 3 Zrotation Xrotation Yrotation
            JOINT LeftHand
            {
              OFFSET 27.5643 0.085362 1.02216
              CHANNELS 3 Zrotation Xrotation Yrotation
              End Site
              {
                OFFSET 16.7443 -0.6 1.50291
              }
            }
          }
        }
      }
      JOINT RightShoulder
      {
        OFFSET -8.99 -0.362252 -0.22
        CHANNELS 3 Zrotation Xrotation Yrotation
        JOINT RightArm
        {
          OFFSET -10.2827 -0.00338 0.322123
          CHANNELS 3 Zrotation Xrotation Yrotation
          JOINT RightForeArm
          {
            OFFSET -32.8971 0.099144 -1.42434
            CHANNELS 3 Zrotation Xrotation Yrotation
            JOINT RightHand
            {
              OFFSET -27.4921 0.085362 1.02216
              CHANNELS 3 Zrotation Xrotation Yrotation
              End Site
              {
                OFFSET -16.6312 -0.6 1.50291
              }
            }
          }
        }
      }
    }
  }
  JOINT LeftUpLeg
  {
    OFFSET 8.9458 -8.66707 0.101652
    CHANNELS 3 Zrotation Xrotation Yrotation
    JOINT LeftLeg
    {
      OFFSET 0 -44.4227 1.3727
      CHANNELS 3 Zrotation Xrotation Yrotation
      JOINT LeftFoot
      {
        OFFSET -0.253549 -42.0924 -1.46059
        CHANNELS 3 Zrotation Xrotation Yrotation
        JOINT LeftToes
        {
          OFFSET -0.04 -4.41509 8.4991
          CHANNELS 3 Zrotation Xrotation Yrotation
          End Site
          {
            OFFSET 0.08 -0.047448 9.77979
          }
        }
      }
    }
  }
}
MOTION
Frames:	8
Frame Time:	0.0166667
65.9927 98.8015 -223.661 5.844 3.83558 139.085 -17.5395 8.15367 -1.17884 17.2437 14.6139 -1.18075 -15.5382 -2.9681 -0.884502 0.0462048 0.000533403 0.662642 4.44292 10.6376 4.21308 -0.0209404 0.02786 -0.0189595 -33.1745 24.0736 40.7235 -2.98177e-016 -1.59028e-015 3.18055e-015 171.828 -68.4851 -159.967 -96.8678 57.0729 -37.7003 16.8548 11.6803 -1.71424 13.8402 10.1875 -0.879006 87.7343 -10.439 81.2183 49.6291 53.3872 66.2421 -1.20157 18.9341 0.887511 20.1603 -16.6885 15.0063 5.41361 14.3218 -9.84964 -21.0541 -3.29462 -1.31658 -1.18446e-009 1.5602e-007 -4.87133e-009 
66.1644 98.2013 -223.367 5.9819 4.09341 139.31 -17.3013 8.32212 -0.664809 20.2372 13.32 -4.37141 -22.6335 -2.83325 -1.24751 0.0462048 0.000533403 0.662642 3.71771 11.6011 3.71132 -0.0191005 0.02735 -0.0200795 -31.5381 22.4969 38.7062 1.59028e-015 -3.97569e-016 -9.54166e-015 176.148 -67.0055 -153.522 -98.1719 57.7681 -33.4045 20.2902 9.65151 -3.14525 12.0984 10.7338 -4.84716 93.4687 -7.06151 80.8677 46.7409 53.904 68.1346 3.01014 18.2541 1.24726 20.7146 -16.1265 14.2433 4.39623 14.5359 -7.48742 -22.7761 -3.10784 -1.36891 -1.18447e-009 1.5602e-007 -4.87132e-009 
66.3435 97.5926 -222.962 6.14955 4.49306 139.527 -17.3144 7.23818 0.566782 25.1808 12.1466 -9.78087 -25.9809 -2.72515 -1.43996 0.0462048 0.000533403 0.662642 2.27536 13.6054 2.62871 -0.0510614 0.0849901 -0.0640488 -28.2716 19.4899 35.3728 7.95139e-016 1.19271e-015 -9.54166e-015 -176.982 -63.3621 -143.125 -97.1532 61.6511 -29.8006 17.9259 14.2942 -5.59018 12.9991 9.60935 -4.81419 96.1491 -6.80682 79.5976 38.837 50.8519 73.9959 10.4259 16.0418 2.38117 21.5097 -15.2639 12.2243 2.23829 15.3006 -1.73198 -24.1286 -2.80904 -1.3592 -1.18447e-009 1.5602e-007 -4.87131e-009 
66.4993 96.9547 -222.409 6.37294 4.99732 139.702 -17.1727 5.42208 2.26609 29.4746 12.1508 -16.4566 -31.2947 -2.40745 -1.79438 0.0462048 0.000533403 0.662642 0.37104 16.5506 1.14202 -0.0416214 0.08319 -0.060429 -23.8268 15.3139 31.216 1.59028e-015 0 -1.27222e-014 -174.506 -59.6143 -139.53 -96.3266 63.9423 -27.7542 19.8659 13.1279 -6.26733 14.3314 7.91254 -3.91453 98.1305 -6.44486 78.3139 34.4949 49.6874 77.6305 14.7807 14.9172 3.10649 22.594 -14.5332 9.09969 -1.09265 16.6358 6.9366 -25.1166 -2.75356 -1.35363 -1.18446e-009 1.5602e-007 -4.87131e-009 
66.614 96.4414 -221.743 6.65991 5.5806 139.822 -17.6078 4.01114 4.00648 32.5814 12.7292 -21.6624 -33.2123 -1.98661 -1.84083 0.0462048 0.000533403 0.662642 -1.28481 19.2265 -0.115992 0.00744994 -0.00942001 -0.00203018 -18.9216 11.3904 26.4622 -1.59028e-015 1.59028e-015 -0 -173.197 -56.928 -138.068 -95.688 65.3295 -26.5506 18.2742 15.9761 -7.44906 15.54 6.68678 -3.03552 99.6501 -6.18701 77.1757 32.0537 49.5578 80.1078 16.9802 14.4979 3.41923 23.8635 -13.7744 4.97405 -5.56678 17.4576 18.1815 -25.7581 -2.70031 -1.31882 -1.18447e-009 1.5602e-007 -4.87132e-009 
66.6769 96.0037 -221.015 6.9968 6.22075 139.898 -18.4089 2.88726 5.73995 34.9051 13.6965 -25.8255 -31.6273 -1.7956 -1.70631 0.0462048 0.000533403 0.662642 -2.7086 21.6228 -1.16042 0.0111101 -0.01269 0.00306973 -13.5523 7.43645 21.3243 0 0 -0 -172.401 -54.9294 -137.813 -94.9972 66.1245 -25.9652 19.3692 15.2999 -7.83363 16.672 5.72928 -2.07143 100.806 -6.06141 76.236 30.7562 49.944 81.8376 18.2708 14.471 3.48847 25.2538 -13.0155 -0.064611 -10.8951 17.1777 31.531 -26.0639 -2.5549 -1.22521 -1.18446e-009 1.5602e-007 -4.87132e-009 
66.6641 95.5686 -220.314 7.35427 6.8959 139.954 -18.9624 1.94698 7.32626 36.5531 14.7252 -29.1508 -31.3833 -1.5402 -1.69433 0.0462048 0.000533403 0.662642 -3.91259 23.7322 -2.03361 0.0110009 -0.0119725 0.00484405 -7.8006 3.48751 15.954 -0 0 6.36111e-015 -171.749 -53.5215 -138.03 -94.3176 66.6033 -25.6851 18.4572 16.9451 -8.5494 17.6595 5.05469 -1.14731 101.695 -6.04925 75.4972 30.1789 50.5369 83.0251 18.8118 14.7103 3.34176 26.6229 -12.7305 -4.78053 -16.4562 16.3991 45.4091 -26.0598 -2.39593 -1.15854 -1.18446e-009 1.5602e-007 -4.87131e-009 
66.5707 95.1478 -219.717 7.69811 7.58567 140.016 -19.386 1.08494 8.75173 37.8953 15.7745 -31.9246 -31.2323 -1.2536 -1.66897 0.0462048 0.000533403 0.662642 -4.89509 25.5473 -2.78702 0.00932705 -0.00887001 0.00563244 -2.90555 -0.117596 11.5508 -3.18055e-015 -1.59028e-015 -3.18055e-015 -171.117 -52.5787 -138.4 -93.5045 66.861 -25.706 19.2387 16.4717 -8.88366 18.4603 4.61394 -0.306351 102.395 -6.13314 74.932 30.0595 51.1843 83.8249 19.1521 15.0851 3.11966 28.0569 -12.6536 -9.15321 -22.3528 14.7799 59.3841 -25.6461 -2.1343 -1.1069 -1.18447e-009 1.5602e-007 -4.87131e-009 
